<svg xmlns="http://www.w3.org/2000/svg" xmlns:xlink="http://www.w3.org/1999/xlink" fill="none" version="1.1" width="10" height="16" viewBox="0 0 10 16"><defs><clipPath id="master_svg0_5_256"><rect x="0" y="0" width="10" height="16" rx="0"/></clipPath></defs><g clip-path="url(#master_svg0_5_256)"><g transform="matrix(1,0,0,-1,0,26.6875)"><g><path d="M9.71875,21.625Q10,21.9375,10,22.34375Q10,22.75,9.71875,23.0625Q9.40625,23.34375,9,23.34375Q8.59375,23.34375,8.28125,23.0625L5,19.75L1.71875,23.0625Q1.40625,23.34375,1,23.34375Q0.59375,23.34375,0.28125,23.0625Q0,22.75,0,22.34375Q0,21.9375,0.28125,21.625L3.59375,18.34375L0.28125,15.0625Q0,14.75,0,14.34375Q0,13.9375,0.28125,13.625Q0.59375,13.34375,1,13.34375Q1.40625,13.34375,1.71875,13.625L5,16.9375L8.28125,13.625Q8.59375,13.34375,9,13.34375Q9.40625,13.34375,9.71875,13.625Q10,13.9375,10,14.34375Q10,14.75,9.71875,15.0625L6.40625,18.34375L9.71875,21.625Z" fill="#9CA3AF" fill-opacity="1" style="mix-blend-mode:passthrough"/></g></g></g></svg>