<svg xmlns="http://www.w3.org/2000/svg" xmlns:xlink="http://www.w3.org/1999/xlink" fill="none" version="1.1" width="271.85546875" height="241.83197021484375" viewBox="0 0 271.85546875 241.83197021484375"><g><g><path d="M44.096344213867184,0C71.7765442138672,0.450084,107.56864421386719,13.633,127.47134421386718,33.3555C130.8076442138672,37.0664,133.6729442138672,40.9906,136.3149442138672,45.2188C136.6319442138672,44.6851,136.9489442138672,44.1514,137.2759442138672,43.6016C144.68794421386718,31.7678,154.0639442138672,24.4596,166.3149442138672,18.2188C167.2629442138672,17.7083,168.20994421386717,17.1978,169.18594421386717,16.6719C183.6769442138672,9.35769,200.1889442138672,5.09728,216.00294421386718,1.71875C217.12194421386718,1.47874,217.12194421386718,1.47874,218.26494421386718,1.23389C222.7139442138672,0.351462,226.8089442138672,0.0770176,231.3149442138672,0.21875C233.25294421386718,26.5678,234.56194421386718,52.9521,235.9109442138672,79.3364C236.2199442138672,85.3861,236.5349442138672,91.4356,236.8509442138672,97.4849C237.1359442138672,102.94,237.4179442138672,108.395,237.69794421386717,113.85C237.86494421386718,117.109,238.03294421386718,120.367,238.20494421386718,123.625C238.8969442138672,136.831,239.55594421386718,149.991,239.3149442138672,163.219C238.62694421386718,163.289,237.9389442138672,163.359,237.22994421386718,163.431C204.5219442138672,166.816,164.92394421386717,172.223,142.3149442138672,199.219C140.19994421386718,202.151,138.21794421386718,205.145,136.3149442138672,208.219C134.7449442138672,206.125,133.17594421386718,204.03,131.62374421386718,201.922C114.83004421386718,179.904,85.40994421386719,169.819,58.72984421386719,166.226C55.09494421386719,165.774,51.45634421386718,165.366,47.815144213867185,164.969C46.298044213867186,164.795,44.78114421386719,164.621,43.26434421386719,164.445C39.616004213867186,164.024,35.965754213867186,163.62,32.315123513867185,163.219C32.22286701386719,153.325,32.462765213867186,143.52,33.04949821386719,133.641C33.128674213867185,132.252,33.207432213867186,130.863,33.285811213867184,129.474C33.497094213867186,125.746,33.71325421386719,122.018,33.93035421386719,118.291C34.300014213867186,111.922,34.66018421386719,105.552,35.021764213867186,99.1817C35.116114213867185,97.5207,35.210644213867184,95.8597,35.305334213867184,94.1988C36.00261421386719,81.9643,36.66490421386719,69.7284,37.298554213867185,57.4905C37.434974213867186,54.856,37.571974213867186,52.2216,37.70913421386719,49.5872C38.104924213867186,41.9785,38.49869421386719,34.3698,38.88356421386719,26.7606C39.042514213867186,23.6373,39.205254213867185,20.5143,39.36903421386719,17.3912C39.444534213867186,15.935,39.51834421386719,14.4787,39.590394213867185,13.0223C39.68861421386719,11.0395,39.79306421386719,9.05696,39.89788421386719,7.07446C39.95466421386719,5.96148,40.01143421386719,4.8485,40.069934213867185,3.7018C40.41570421386719,0.20015,40.548824213867185,0.279021,44.096344213867184,0Z" fill="#6B7280" fill-opacity="1" style="mix-blend-mode:passthrough"/></g><g><path d="M27.315,29.218745255273436C26.7572,40.218996655273436,26.1937,51.21889665527344,25.6275,62.21869665527344C25.5626,63.47979665527344,25.5626,63.47979665527344,25.4965,64.76629665527344C24.3677,86.70559665527344,23.193,108.64179665527344,21.9361,130.57469665527344C21.8788,131.57469665527344,21.8215,132.57569665527342,21.7625,133.60669665527342C21.199,143.44269665527344,20.6316,153.27969665527343,20.0558,163.11569665527344C19.8418,166.77969665527343,19.6299,170.44469665527345,19.4184,174.10969665527344C19.3198,175.80969665527343,19.2201,177.50869665527344,19.1192,179.20869665527343C18.3413,191.70469665527344,18.3413,191.70469665527344,18.315,204.21869665527345C20.4956,206.39969665527343,25.7091,205.37269665527344,28.7442,205.37669665527343C29.7344,205.38169665527343,30.7246,205.38669665527343,31.7448,205.39169665527345C33.9028,205.40269665527345,36.0609,205.41069665527343,38.219,205.41769665527343C41.6309,205.42969665527343,45.0426,205.44869665527344,48.4544,205.47069665527343C58.1577,205.53269665527344,67.861,205.58669665527344,77.5645,205.61969665527343C83.492,205.64069665527344,89.4193,205.67669665527345,95.3467,205.72069665527343C97.6106,205.73469665527344,99.8745,205.74369665527342,102.138,205.74669665527344C105.301,205.75169665527343,108.464,205.77469665527343,111.627,205.80269665527345C113.039,205.79769665527343,113.039,205.79769665527343,114.48,205.79269665527343C115.341,205.80469665527343,116.202,205.81569665527343,117.089,205.82669665527345C117.837,205.82969665527344,118.585,205.83369665527343,119.356,205.83669665527344C121.859,206.32469665527344,122.735,207.25769665527343,124.315,209.21869665527345C125.124,211.15669665527344,125.124,211.15669665527344,125.752,213.21869665527345C126.657,215.74569665527343,127.243,217.13969665527344,129.065,219.15669665527344C132.279,220.67369665527343,134.75,221.15769665527344,138.315,221.21869665527345C144.736,218.00769665527343,146.816,213.64369665527343,149.315,207.21869665527345C151.501,205.03269665527344,156.732,206.04269665527343,159.776,206.02969665527343C160.769,206.02069665527344,161.763,206.01269665527343,162.786,206.00369665527344C164.951,205.98669665527345,167.115,205.97169665527343,169.28,205.95869665527343C172.7,205.93769665527344,176.119,205.91069665527343,179.539,205.88169665527343C188.033,205.81169665527344,196.527,205.75269665527344,205.021,205.69269665527344C212.193,205.64169665527345,219.365,205.58669665527344,226.536,205.52669665527344C229.916,205.49969665527342,233.296,205.47969665527344,236.676,205.45869665527343C238.735,205.44269665527344,240.795,205.42569665527344,242.854,205.40869665527345C243.803,205.40369665527345,244.751,205.39969665527343,245.729,205.39569665527344C249.848,205.77469665527343,249.848,205.77469665527343,253.315,204.21869665527345C253.697,196.53069665527343,253.224,188.78869665527344,252.799,181.10969665527344C252.716,179.52969665527343,252.716,179.52969665527343,252.63,177.91869665527344C252.445,174.43469665527343,252.255,170.95169665527345,252.065,167.46869665527345C251.932,164.99269665527345,251.799,162.51669665527345,251.667,160.04069665527345C250.33,135.14469665527344,248.941,110.25259665527344,247.548,85.36039665527343C247.201,79.16109665527344,246.856,72.96169665527344,246.512,66.76219665527344C246.388,64.53149665527343,246.264,62.300696655273434,246.138,60.06999665527344C245.991,57.43349665527344,245.846,54.796896655273436,245.702,52.16019665527344C245.642,51.102696655273434,245.642,51.102696655273434,245.58,50.023996655273436C245.208,43.088196655273435,245.222,36.16190665527344,245.315,29.218745255273436C252.005,29.937008655273438,255.65,31.43232665527344,260.315,36.218746655273435C264.348,43.22319665527344,264.985,50.37379665527344,265.221,58.296896655273436C265.271,59.46879665527344,265.321,60.64069665527344,265.373,61.84819665527344C265.508,65.05129665527343,265.628,68.25469665527343,265.741,71.45869665527343C265.944,76.99809665527343,266.192,82.53599665527344,266.429,88.07399665527345C266.523,90.26669665527344,266.614,92.45939665527344,266.705,94.65209665527344C267.156,105.34959665527344,267.741,116.03549665527343,268.389,126.72269665527344C268.482,128.27039665527343,268.576,129.81869665527344,268.669,131.36569665527344C269.031,137.36069665527344,269.394,143.35469665527344,269.777,149.34769665527344C270.728,164.25669665527343,271.523,179.16969665527344,271.71,194.11069665527344C271.73,195.54469665527344,271.759,196.97969665527344,271.796,198.41269665527344C271.997,206.55769665527345,272.006,212.97869665527344,266.315,219.21869665527345C259.076,225.92869665527343,251.845,226.37369665527345,242.372,226.33269665527342C241.493,226.33269665527342,240.615,226.33269665527342,239.709,226.33269665527342C236.82,226.33169665527345,233.931,226.32469665527344,231.042,226.31669665527343C229.032,226.31469665527345,227.023,226.31269665527344,225.014,226.31169665527344C219.737,226.30869665527345,214.46,226.29869665527343,209.182,226.28769665527344C203.793,226.27669665527344,198.404,226.27269665527345,193.014,226.26769665527343C182.448,226.25669665527343,171.881,226.23969665527343,161.315,226.21869665527345C161.021,226.82669665527345,160.727,227.43569665527343,160.424,228.06269665527344C157.323,234.08969665527343,152.853,237.81769665527344,146.573,240.30469665527343C138.902,242.45669665527345,130.111,242.55869665527345,122.815,239.15669665527344C117.892,236.27969665527343,112.908,232.40569665527343,110.315,227.21869665527345C108.597,227.21369665527342,108.597,227.21369665527342,106.845,227.20769665527342C96.0312,227.17069665527345,85.2177,227.11269665527342,74.4042,227.03469665527345C68.8454,226.99569665527343,63.2868,226.96269665527345,57.7278,226.94769665527343C52.3589,226.93269665527345,46.9905,226.89769665527345,41.6218,226.85069665527342C39.5778,226.83569665527344,37.5338,226.82769665527343,35.4898,226.82669665527345C32.6173,226.82469665527344,29.7461,226.79769665527343,26.8738,226.76469665527344C25.6179,226.77269665527345,25.6179,226.77269665527345,24.3367,226.77969665527343C17.6652,226.66269665527344,11.3986,225.12069665527343,6.42459,220.43969665527345C0.382267,213.71869665527345,-0.0394287,208.50269665527344,0.00248718,199.65669665527344C0.00667572,198.38769665527343,0.0108662,197.11969665527343,0.0151825,195.81269665527344C0.137159,181.64769665527345,1.07359,167.52169665527344,1.96172,153.38869665527343C2.84392,139.32469665527344,3.64663,125.26009665527344,4.36967,111.18749665527343C4.41412,110.32329665527344,4.45856,109.45909665527344,4.50435,108.56869665527344C4.95063,99.87819665527344,5.39134,91.18739665527343,5.82935,82.49649665527343C5.99484,79.22149665527344,6.16199,75.94669665527343,6.32946,72.67189665527343C6.44416,70.41539665527344,6.55637,68.15879665527343,6.66847,65.90219665527343C7.91733,41.167396655273436,7.91733,41.167396655273436,13.6275,34.531246655273435C18.0662,30.711866655273436,21.4803,29.031482655273436,27.315,29.218745255273436Z" fill="#6B7280" fill-opacity="1" style="mix-blend-mode:passthrough"/></g><g><path d="M30.314987182617188,174.21875C56.29058718261719,174.21875,83.91528718261719,179.4997,106.31498718261719,193.21875C106.31498718261719,193.54874999999998,106.31498718261719,193.87875,106.31498718261719,194.21875C81.23498718261719,194.21875,56.15498718261719,194.21875,30.314987182617188,194.21875C30.314987182617188,187.61875,30.314987182617188,181.01875,30.314987182617188,174.21875Z" fill="#6B7280" fill-opacity="1" style="mix-blend-mode:passthrough"/></g><g><path d="M241.3149871826172,175.2187565625C241.3149871826172,181.4887565625,241.3149871826172,187.7587765625,241.3149871826172,194.2187765625C216.5649871826172,194.2187765625,191.8149871826172,194.2187765625,166.3149871826172,194.2187765625C180.72588718261719,179.8078165625,221.27528718261718,170.2088365625,241.3149871826172,175.2187565625Z" fill="#6B7280" fill-opacity="1" style="mix-blend-mode:passthrough"/></g><g><path d="M56.77201718261719,134.1640625C77.93728718261718,135.2974725,103.23948718261718,142.1204425,119.65088718261718,156.2265625C121.31498718261719,158.2187625,121.31498718261719,158.2187625,121.12748718261719,161.4062625C120.31498718261719,164.2187625,120.31498718261719,164.2187625,119.31498718261719,165.2187625C113.94678718261719,164.8621625,110.61448718261718,163.4810625,106.12748718261719,160.5937625C92.81758718261719,152.5591625,77.90778718261718,148.7500625,62.74098718261719,145.9035625C61.352567182617186,145.6341625,61.352567182617186,145.6341625,59.93607718261719,145.3593625C59.115507182617186,145.2101625,58.294947182617186,145.0609625,57.44950718261719,144.9072625C54.97162718261719,144.1080025,53.85487718261719,143.3105125,52.31498718261719,141.2187525C52.87241818261719,134.2508581,52.87241818261719,134.2508581,56.77201718261719,134.1640625Z" fill="#111827" fill-opacity="1" style="mix-blend-mode:passthrough"/></g><g><path d="M214.0649871826172,133.96875C215.2019871826172,133.9300781,215.2019871826172,133.9300781,216.36188718261718,133.890625C217.00638718261717,133.998906,217.65088718261717,134.107187,218.3149871826172,134.21875C220.3149871826172,137.218745,220.3149871826172,137.218745,220.0649871826172,139.781245C219.3149871826172,142.218745,219.3149871826172,142.218745,217.3149871826172,144.218725C215.5376871826172,144.717725,215.5376871826172,144.717725,213.3774871826172,145.078125C212.17238718261717,145.292225,212.17238718261717,145.292225,210.9428871826172,145.510725C210.07568718261717,145.661925,209.2084871826172,145.813025,208.3149871826172,145.968725C191.2688871826172,149.18902500000002,175.35338718261718,154.796225,160.5337371826172,163.933625C157.87762718261718,165.472125,156.3354371826172,165.708525,153.3149871826172,165.218725C151.3149871826172,162.218725,151.3149871826172,162.218725,151.3149871826172,159.843725C153.6073771826172,153.826225,160.3676371826172,150.87992500000001,165.8774871826172,148.218725C166.57998718261717,147.875525,167.2825871826172,147.53232500000001,168.00638718261717,147.178725C182.0710871826172,140.407555,198.2373871826172,134.296217,214.0649871826172,133.96875Z" fill="#111827" fill-opacity="1" style="mix-blend-mode:passthrough"/></g><g><path d="M218.3149871826172,74.2187491640625C220.3149871826172,77.2187481640625,220.3149871826172,77.2187481640625,220.2524871826172,79.2187481640625C218.8519871826172,82.2064781640625,217.30098718261718,82.7633481640625,214.3149871826172,84.2187181640625C210.8273871826172,85.1200181640625,207.2921871826172,85.7445181640625,203.7524871826172,86.4062181640625C187.97468718261717,89.6118181640625,173.71268718261717,95.1381181640625,160.16264718261718,103.8476181640625C156.9469071826172,105.3960181640625,155.6409571826172,105.3396181640625,152.3149871826172,104.2187181640625C151.5024871826172,101.5312181640625,151.5024871826172,101.5312181640625,151.3149871826172,98.2187181640625C164.48768718261718,82.7069281640625,190.6421871826172,76.7848481640625,209.63138718261717,73.4179683640625C212.75118718261717,73.1863691640625,215.2877871826172,73.4247980640625,218.3149871826172,74.2187491640625Z" fill="#111827" fill-opacity="1" style="mix-blend-mode:passthrough"/></g><g><path d="M218.3149871826172,105.21875586523437C218.8099871826172,108.68375686523437,218.8099871826172,108.68375686523437,219.3149871826172,112.21875686523437C215.5266871826172,115.89323686523437,211.1840871826172,116.19293686523437,206.1899871826172,117.03123686523438C189.2801871826172,120.17223686523437,172.7337871826172,125.60623686523438,158.3149871826172,135.21873686523438C155.7524871826172,135.46873686523438,155.7524871826172,135.46873686523438,153.3149871826172,135.21873686523438C151.3149871826172,133.21873686523438,151.3149871826172,133.21873686523438,150.8149871826172,130.90623686523438C151.4276351826172,127.61323686523437,152.74771718261718,126.47553686523437,155.3970171826172,124.52343686523437C156.02994718261718,124.09293686523438,156.6628771826172,123.66233686523438,157.3149871826172,123.21873686523438C158.2489171826172,122.54203686523438,158.2489171826172,122.54203686523438,159.20170718261718,121.85153686523438C173.70258718261718,112.21903686523437,200.72828718261718,101.35825686523438,218.3149871826172,105.21875586523437Z" fill="#111827" fill-opacity="1" style="mix-blend-mode:passthrough"/></g><g><path d="M58.37748718261719,104.96875C79.52598718261719,105.297793,105.64008718261718,113.69025,121.31498718261719,128.21875C121.81498718261719,130.90625,121.81498718261719,130.90625,121.31498718261719,133.21875C120.65498718261719,133.87875,119.9949871826172,134.53875,119.31498718261719,135.21875C113.90218718261718,134.97395,110.01108718261719,133.23275,105.43998718261719,130.53125C91.96298718261718,123.04125,77.92728718261719,119.40765,62.87238718261719,116.31005C61.792527182617185,116.08015,60.71269718261719,115.85015,59.600147182617185,115.61325C58.144267182617185,115.31705,58.144267182617185,115.31705,56.658977182617186,115.01485C54.31498718261719,114.21875,54.31498718261719,114.21875,52.31498718261719,111.21875C52.91175918261719,106.20587,53.37464718261719,105.068974,58.37748718261719,104.96875Z" fill="#111827" fill-opacity="1" style="mix-blend-mode:passthrough"/></g><g><path d="M71.31498718261719,75.21875171386719C88.1259871826172,78.88469171386718,109.64028718261719,84.76468171386719,121.31498718261719,98.21878171386719C121.23488718261719,101.66488171386719,120.75938718261719,102.77438171386719,118.31498718261719,105.21878171386719C113.8948871826172,104.92558171386719,110.83308718261719,102.88708171386719,107.12748718261719,100.59378171386719C93.50678718261719,92.57668171386719,79.34888718261719,88.41798171386719,63.90968718261719,85.25928171386718C62.83818718261719,85.0344817138672,61.76664718261719,84.80968171386719,60.662647182617185,84.57808171386719C59.703657182617185,84.38698171386719,58.74467718261719,84.19588171386718,57.75663718261719,83.99898171386718C55.12403718261719,83.1577317138672,53.94404718261719,82.43479171386718,52.31498718261719,80.21875171386719C52.43998718261719,77.65625171386719,52.43998718261719,77.65625171386719,53.31498718261719,75.21875171386719C58.55784718261719,71.72351171386718,65.34668718261719,74.08636671386719,71.31498718261719,75.21875171386719Z" fill="#111827" fill-opacity="1" style="mix-blend-mode:passthrough"/></g><g><path d="M58.756397182617185,44.1015625C79.7877871826172,45.7335325,106.48288718261719,52.351862499999996,121.31498718261719,68.2187625C121.87748718261719,70.9687625,121.87748718261719,70.9687625,121.31498718261719,73.2187625C120.65498718261719,73.8787625,119.9949871826172,74.5387625,119.31498718261719,75.2187625C113.87708718261719,74.9745625,110.3820871826172,73.3857625,105.81498718261719,70.5312625C93.84978718261718,63.3857625,81.42258718261719,59.4648625,67.94388718261719,56.2968625C67.17058718261718,56.1144625,66.3973871826172,55.9320625,65.60058718261719,55.7441625C64.07398718261719,55.3932625,62.54354718261719,55.0586625,61.00980718261719,54.7402625C55.52926718261719,53.5401725,55.52926718261719,53.5401725,53.31498718261719,50.2187525C53.76152118261719,46.534842499999996,54.74796718261719,44.2939675,58.756397182617185,44.1015625Z" fill="#111827" fill-opacity="1" style="mix-blend-mode:passthrough"/></g><g><path d="M218.3777496826172,45.406244702148435C219.3152496826172,47.218744702148435,219.3152496826172,47.218744702148435,219.1902496826172,49.78124470214844C218.3152496826172,52.21874470214844,218.3152496826172,52.21874470214844,215.3152496826172,54.21874470214844C213.40844968261717,54.71774470214844,213.40844968261717,54.71774470214844,211.24494968261718,55.078144702148435C210.43954968261718,55.22084470214844,209.6342496826172,55.363644702148434,208.8044496826172,55.510744702148436C207.51044968261718,55.73744470214844,207.51044968261718,55.73744470214844,206.19024968261718,55.96874470214844C190.4233496826172,58.95384470214844,173.0442496826172,64.14904470214844,160.03007968261718,73.93744470214844C157.69420968261718,75.68274470214844,156.1586196826172,75.59284470214844,153.3152296826172,75.21874470214843C151.3152316826172,73.21874470214844,151.3152316826172,73.21874470214844,150.9790496826172,70.81204470214844C151.5087126826172,66.72624470214843,153.8381496826172,65.42104470214844,156.9172796826172,62.92284470214844C160.81451968261717,60.15324470214844,164.91544968261718,58.08404470214843,169.25274968261718,56.09374470214844C170.16714968261718,55.66704470214844,171.08154968261718,55.240344702148434,172.0237496826172,54.800744702148435C207.05044968261717,38.88449470214844,207.05044968261717,38.88449470214844,218.3777496826172,45.406244702148435Z" fill="#111827" fill-opacity="1" style="mix-blend-mode:passthrough"/></g></g></svg>