<svg xmlns="http://www.w3.org/2000/svg" xmlns:xlink="http://www.w3.org/1999/xlink" fill="none" version="1.1" width="16" height="16" viewBox="0 0 16 16"><defs><clipPath id="master_svg0_5_246"><rect x="0" y="0" width="16" height="16" rx="0"/></clipPath></defs><g clip-path="url(#master_svg0_5_246)"><g transform="matrix(1,0,0,-1,0,29.687515258789062)"><g><path d="M4.9017503125,28.15625762939453Q5.3641803125,27.65625762939453,4.9634103125,27.09375762939453L2.7437603125,24.59375762939453Q2.5279603125,24.34375762939453,2.2196703125,24.34375762939453Q1.8805603125,24.34375762939453,1.6647603125,24.56250762939453L0.4316203125,25.812557629394533Q0.00002031250000000817,26.34375762939453,0.4316203125,26.875057629394533Q0.9557043125,27.312557629394533,1.4797903125,26.875057629394533L2.1580203124999997,26.187557629394533L3.8535803125,28.09375762939453Q4.3468403125,28.562557629394533,4.9017503125,28.15625762939453ZM4.9017503125,23.15625762939453Q5.3641803125,22.65625762939453,4.9634103125,22.09375762939453L2.7437603125,19.59375762939453Q2.5279603125,19.34375762939453,2.2196703125,19.34375762939453Q1.8805603125,19.34375762939453,1.6647603125,19.56250762939453L0.4316203125,20.81250762939453Q0.00002031250000000817,21.34375762939453,0.4316203125,21.87500762939453Q0.9557043125,22.31250762939453,1.4797903125,21.87500762939453L2.1580203124999997,21.18750762939453L3.8535803125,23.09375762939453Q4.3468403125,23.56250762939453,4.9017503125,23.15625762939453ZM7.1214103125,26.34375762939453Q7.1214103125,26.78125762939453,7.3988603125,27.062557629394533Q7.6763203125,27.34375762939453,8.1079203125,27.34375762939453L15.0135203125,27.34375762939453Q15.4451203125,27.34375762939453,15.7225203125,27.062557629394533Q16.0000203125,26.78125762939453,16.0000203125,26.34375762939453Q16.0000203125,25.90625762939453,15.7225203125,25.62495762939453Q15.4451203125,25.34375762939453,15.0135203125,25.34375762939453L8.1079203125,25.34375762939453Q7.6763203125,25.34375762939453,7.3988603125,25.62495762939453Q7.1214103125,25.90625762939453,7.1214103125,26.34375762939453ZM7.1214103125,21.34375762939453Q7.1214103125,21.78125762939453,7.3988603125,22.06250762939453Q7.6763203125,22.34375762939453,8.1079203125,22.34375762939453L15.0135203125,22.34375762939453Q15.4451203125,22.34375762939453,15.7225203125,22.06250762939453Q16.0000203125,21.78125762939453,16.0000203125,21.34375762939453Q16.0000203125,20.90625762939453,15.7225203125,20.62500762939453Q15.4451203125,20.34375762939453,15.0135203125,20.34375762939453L8.1079203125,20.34375762939453Q7.6763203125,20.34375762939453,7.3988603125,20.62500762939453Q7.1214103125,20.90625762939453,7.1214103125,21.34375762939453ZM5.1483803125,16.34375762939453Q5.1483803125,16.78125762939453,5.4258403125,17.06250762939453Q5.7033003125,17.34375762939453,6.1349003125,17.34375762939453L15.0135203125,17.34375762939453Q15.4451203125,17.34375762939453,15.7225203125,17.06250762939453Q16.0000203125,16.78125762939453,16.0000203125,16.34375762939453Q16.0000203125,15.906257629394531,15.7225203125,15.625007629394531Q15.4451203125,15.343757629394531,15.0135203125,15.343757629394531L6.1349003125,15.343757629394531Q5.7033003125,15.343757629394531,5.4258403125,15.625007629394531Q5.1483803125,15.906257629394531,5.1483803125,16.34375762939453ZM1.6955903125,17.84375762939453Q2.5279603125,17.81250762939453,2.9903903125,17.09375762939453Q3.3603303125,16.34375762939453,2.9903903125,15.593757629394531Q2.5279603125,14.875007629394531,1.6955903125,14.843757629394531Q0.8632193125,14.875007629394531,0.4007913125,15.593757629394531Q0.030849312500000003,16.34375762939453,0.4007913125,17.09375762939453Q0.8632193125,17.81250762939453,1.6955903125,17.84375762939453Z" fill="#D1D5DB" fill-opacity="1" style="mix-blend-mode:passthrough"/></g></g></g></svg>