<svg xmlns="http://www.w3.org/2000/svg" xmlns:xlink="http://www.w3.org/1999/xlink" fill="none" version="1.1" width="12" height="16" viewBox="0 0 12 16"><defs><clipPath id="master_svg0_5_251"><rect x="0" y="0" width="12" height="16" rx="0"/></clipPath></defs><g clip-path="url(#master_svg0_5_251)"><g transform="matrix(1,0,0,-1,0,32.6875)"><g><path d="M2,32.34375Q1.15625,32.31255,0.59375,31.74995Q0.03125,31.18755,0,30.34375L0,18.34375Q0.03125,17.5,0.59375,16.9375Q1.15625,16.375,2,16.34375L10,16.34375Q10.8438,16.375,11.4062,16.9375Q11.9688,17.5,12,18.34375L12,27.34375L8,27.34375Q7.5625,27.34375,7.28125,27.62495Q7,27.90625,7,28.34375L7,32.34375L2,32.34375ZM8,32.34375L8,28.34375L8,32.34375L8,28.34375L12,28.34375L8,32.34375ZM3.5,24.34375L8.5,24.34375L3.5,24.34375L8.5,24.34375Q8.96875,24.3125,9,23.84375Q8.96875,23.375,8.5,23.34375L3.5,23.34375Q3.03125,23.375,3,23.84375Q3.03125,24.3125,3.5,24.34375ZM3.5,22.34375L8.5,22.34375L3.5,22.34375L8.5,22.34375Q8.96875,22.3125,9,21.84375Q8.96875,21.375,8.5,21.34375L3.5,21.34375Q3.03125,21.375,3,21.84375Q3.03125,22.3125,3.5,22.34375ZM3.5,20.34375L8.5,20.34375L3.5,20.34375L8.5,20.34375Q8.96875,20.3125,9,19.84375Q8.96875,19.375,8.5,19.34375L3.5,19.34375Q3.03125,19.375,3,19.84375Q3.03125,20.3125,3.5,20.34375Z" fill="#D1D5DB" fill-opacity="1" style="mix-blend-mode:passthrough"/></g></g></g></svg>